<?xml version="1.0" encoding="utf-8"?>
<!-- Generator: Adobe Illustrator 28.4.1, SVG Export Plug-In . SVG Version: 6.00 Build 0)  -->
<svg version="1.1" id="Layer_1" xmlns="http://www.w3.org/2000/svg" xmlns:xlink="http://www.w3.org/1999/xlink" x="0px" y="0px"
	 viewBox="0 0 841.89 595.28" style="enable-background:new 0 0 841.89 595.28;" xml:space="preserve">
<style type="text/css">
	.st0{font-family:'Garamond';}
	.st1{font-size:11.04px;}
	.st2{letter-spacing:3;}
	.st3{font-size:12px;}
	.st4{font-family:'MyriadPro-Regular';}
	.st5{font-family:'Georgia';}
	.st6{font-size:36px;}
	.st7{font-size:39.96px;}
	.st8{font-size:20.04px;}
	.st9{fill:#353C98;}
	.st10{fill:#BB1F40;}
	
		.st11{clip-path:url(#SVGID_00000159448055464163265820000014332498824897797822_);fill:none;stroke:#000000;stroke-width:1.5;stroke-miterlimit:10;}
</style>
<text transform="matrix(1 0 0 1 201.9568 49.5963)"><tspan x="0" y="0" class="st0 st1 st2">I</tspan><tspan x="7.66" y="0" class="st0 st1 st2">N</tspan><tspan x="19.89" y="0" class="st0 st1 st2">S</tspan><tspan x="28.87" y="0" class="st0 st1 st2">T</tspan><tspan x="39.42" y="0" class="st0 st1 st2">I</tspan><tspan x="47.08" y="0" class="st0 st1 st2">T</tspan><tspan x="57.63" y="0" class="st0 st1 st2">U</tspan><tspan x="69.13" y="0" class="st0 st1 st2">T</tspan><tspan x="79.68" y="0" class="st0 st1 st2"> </tspan><tspan x="86.15" y="0" class="st0 st1 st2">P</tspan><tspan x="95.97" y="0" class="st0 st1 st2">R</tspan><tspan x="106.41" y="0" class="st0 st1 st2">O</tspan><tspan x="118.63" y="0" class="st0 st1 st2"> D</tspan><tspan x="137.32" y="0" class="st0 st1 st2">E</tspan><tspan x="148.22" y="0" class="st0 st1 st2">M</tspan><tspan x="161.16" y="0" class="st0 st1 st2">O</tspan><tspan x="173.51" y="0" class="st0 st1 st2">K</tspan><tspan x="185.38" y="0" class="st0 st1 st2">R</tspan><tspan x="196.04" y="0" class="st0 st1">A</tspan></text>
<text transform="matrix(1 0 0 1 409.1028 49.5963)"><tspan x="0" y="0" class="st0 st1 st2">C</tspan><tspan x="10.66" y="0" class="st0 st1 st2">I</tspan><tspan x="18.33" y="0" class="st0 st1 st2">I</tspan><tspan x="25.99" y="0" class="st0 st1 st2"> </tspan><tspan x="32.46" y="0" class="st0 st1 st2">A</tspan><tspan x="43.6" y="0" class="st0 st1 st2"> </tspan><tspan x="50.06" y="0" class="st0 st1 st2">E</tspan><tspan x="60.96" y="0" class="st0 st1 st2">K</tspan><tspan x="72.46" y="0" class="st0 st1 st2">ONO</tspan><tspan x="109.38" y="0" class="st0 st1 st2">M</tspan><tspan x="122.33" y="0" class="st0 st1 st2">I</tspan><tspan x="129.99" y="0" class="st0 st1 st2">C</tspan><tspan x="140.65" y="0" class="st0 st1 st2">K</tspan><tspan x="152.15" y="0" class="st0 st1 st2">O</tspan><tspan x="164.49" y="0" class="st0 st1 st2">U</tspan><tspan x="175.99" y="0" class="st0 st1 st2"> </tspan><tspan x="182.45" y="0" class="st0 st1 st2">A</tspan><tspan x="193.59" y="0" class="st0 st1 st2">N</tspan><tspan x="205.81" y="0" class="st0 st1 st2">A</tspan><tspan x="216.95" y="0" class="st0 st1 st2">L</tspan><tspan x="227.02" y="0" class="st0 st1 st2">Ý</tspan><tspan x="237.92" y="0" class="st0 st1 st2">Z</tspan><tspan x="248.94" y="0" class="st0 st1">U</tspan></text>
<text transform="matrix(1 0 0 1 312.2327 71.0963)"><tspan x="0" y="0" class="st0 st3">projekt Národoho</tspan><tspan x="84.74" y="0" class="st0 st3">s</tspan><tspan x="89.07" y="0" class="st0 st3">pod</tspan><tspan x="107.31" y="0" class="st0 st3">á</tspan><tspan x="112.21" y="0" class="st4 st3">ř</tspan><tspan x="116.14" y="0" class="st0 st3">s</tspan><tspan x="120.51" y="0" class="st0 st3">k</tspan><tspan x="126.16" y="0" class="st0 st3">ého ús</tspan><tspan x="156.66" y="0" class="st0 st3">t</tspan><tspan x="160.12" y="0" class="st0 st3">a</tspan><tspan x="165.02" y="0" class="st0 st3">vu </tspan><tspan x="179.52" y="0" class="st0 st3">A</tspan><tspan x="187.67" y="0" class="st0 st3">V</tspan><tspan x="195.81" y="0" class="st0 st3"> </tspan></text>
<text transform="matrix(1 0 0 1 511.2429 71.0963)"><tspan x="0" y="0" class="st4 st3">Č</tspan><tspan x="6.9" y="0" class="st0 st3">R</tspan><tspan x="14.44" y="0" class="st0 st3">, v</tspan><tspan x="25.69" y="0" class="st0 st3">.</tspan><tspan x="28.33" y="0" class="st0 st3"> v.</tspan><tspan x="39.58" y="0" class="st0 st3"> </tspan><tspan x="42.5" y="0" class="st0 st3">i.</tspan></text>
<text transform="matrix(1 0 0 1 559.8425 71.0963)" class="st0 st3"> </text>
<text transform="matrix(1 0 0 1 203.6369 96.4161)"><tspan x="0" y="0" class="st0 st1 st2">I</tspan><tspan x="7.66" y="0" class="st0 st1 st2">N</tspan><tspan x="19.89" y="0" class="st0 st1 st2">S</tspan><tspan x="28.87" y="0" class="st0 st1 st2">T</tspan><tspan x="39.42" y="0" class="st0 st1 st2">I</tspan><tspan x="47.08" y="0" class="st0 st1 st2">T</tspan><tspan x="57.63" y="0" class="st0 st1 st2">U</tspan><tspan x="69.13" y="0" class="st0 st1 st2">T</tspan><tspan x="79.68" y="0" class="st0 st1 st2">E</tspan><tspan x="90.58" y="0" class="st0 st1 st2"> </tspan><tspan x="97.04" y="0" class="st0 st1 st2">F</tspan><tspan x="106.98" y="0" class="st0 st1 st2">O</tspan><tspan x="119.21" y="0" class="st0 st1 st2">R</tspan><tspan x="129.87" y="0" class="st0 st1 st2"> </tspan><tspan x="136.33" y="0" class="st0 st1 st2">D</tspan><tspan x="148.56" y="0" class="st0 st1 st2">E</tspan><tspan x="159.46" y="0" class="st0 st1 st2">M</tspan><tspan x="172.41" y="0" class="st0 st1 st2">O</tspan><tspan x="184.75" y="0" class="st0 st1 st2">C</tspan><tspan x="195.41" y="0" class="st0 st1">R</tspan></text>
<text transform="matrix(1 0 0 1 410.0627 96.4161)"><tspan x="0" y="0" class="st0 st1 st2">A</tspan><tspan x="10.78" y="0" class="st0 st1 st2">C</tspan><tspan x="21.43" y="0" class="st0 st1 st2">Y</tspan><tspan x="32.33" y="0" class="st0 st1 st2"> </tspan><tspan x="38.8" y="0" class="st0 st1 st2">A</tspan><tspan x="49.94" y="0" class="st0 st1 st2">N</tspan><tspan x="62.18" y="0" class="st0 st1 st2">D </tspan><tspan x="80.87" y="0" class="st0 st1 st2">E</tspan><tspan x="91.77" y="0" class="st0 st1 st2">C</tspan><tspan x="102.42" y="0" class="st0 st1 st2">ONO</tspan><tspan x="139.35" y="0" class="st0 st1 st2">M</tspan><tspan x="152.41" y="0" class="st0 st1 st2">I</tspan><tspan x="160.09" y="0" class="st0 st1 st2">C</tspan><tspan x="170.74" y="0" class="st0 st1 st2"> </tspan><tspan x="177.2" y="0" class="st0 st1 st2">A</tspan><tspan x="188.34" y="0" class="st0 st1 st2">N</tspan><tspan x="200.56" y="0" class="st0 st1 st2">A</tspan><tspan x="211.71" y="0" class="st0 st1 st2">L</tspan><tspan x="221.41" y="0" class="st0 st1 st2">Y</tspan><tspan x="232.31" y="0" class="st0 st1 st2">S</tspan><tspan x="241.28" y="0" class="st0 st1 st2">I</tspan><tspan x="248.95" y="0" class="st0 st1">S</tspan></text>
<text transform="matrix(1 0 0 1 266.5129 117.8961)" class="st0 st3"> </text>
<text transform="matrix(1 0 0 1 269.5129 117.8961)"><tspan x="0" y="0" class="st0 st3">A</tspan><tspan x="8.14" y="0" class="st0 st3"> </tspan><tspan x="11.14" y="0" class="st0 st3">P</tspan><tspan x="17.86" y="0" class="st0 st3">roje</tspan><tspan x="35.74" y="0" class="st0 st3">c</tspan><tspan x="40.77" y="0" class="st0 st3">t o</tspan><tspan x="53.39" y="0" class="st0 st3">f</tspan><tspan x="57.22" y="0" class="st0 st3"> the </tspan><tspan x="77.84" y="0" class="st0 st3">E</tspan><tspan x="85.75" y="0" class="st0 st3">cono</tspan><tspan x="109.11" y="0" class="st0 st3">m</tspan><tspan x="118.27" y="0" class="st0 st3">i</tspan><tspan x="121.02" y="0" class="st0 st3">c</tspan><tspan x="126.05" y="0" class="st0 st3">s</tspan><tspan x="130.38" y="0" class="st0 st3"> </tspan><tspan x="133.38" y="0" class="st0 st3">I</tspan><tspan x="137.58" y="0" class="st0 st3">n</tspan><tspan x="143.7" y="0" class="st0 st3">s</tspan><tspan x="148.03" y="0" class="st0 st3">ti</tspan><tspan x="154.28" y="0" class="st0 st3">t</tspan><tspan x="157.75" y="0" class="st0 st3">ute of </tspan><tspan x="188.12" y="0" class="st0 st3">t</tspan><tspan x="191.58" y="0" class="st0 st3">he </tspan><tspan x="205.7" y="0" class="st0 st3">C</tspan><tspan x="213.4" y="0" class="st0 st3">z</tspan><tspan x="218.53" y="0" class="st0 st3">e</tspan><tspan x="223.59" y="0" class="st0 st3">ch </tspan><tspan x="237.71" y="0" class="st0 st3">A</tspan><tspan x="245.88" y="0" class="st0 st3">c</tspan><tspan x="250.88" y="0" class="st0 st3">a</tspan><tspan x="255.81" y="0" class="st0 st3">de</tspan><tspan x="266.81" y="0" class="st0 st3">m</tspan><tspan x="275.98" y="0" class="st0 st3">y of S</tspan><tspan x="302.72" y="0" class="st0 st3">c</tspan><tspan x="307.76" y="0" class="st0 st3">i</tspan><tspan x="310.5" y="0" class="st0 st3">e</tspan><tspan x="315.54" y="0" class="st0 st3">n</tspan><tspan x="321.66" y="0" class="st0 st3">c</tspan><tspan x="326.59" y="0" class="st0 st3">es</tspan></text>
<text transform="matrix(1 0 0 1 605.7126 117.8961)" class="st0 st3"> </text>
<text transform="matrix(1 0 0 1 188.6481 227.1847)"><tspan x="0" y="0" class="st5 st6">Stá</tspan><tspan x="50.77" y="0" class="st5 st6">t</tspan><tspan x="63.27" y="0" class="st5 st6">ní zamě</tspan><tspan x="187" y="0" class="st5 st6">s</tspan><tspan x="202.59" y="0" class="st5 st6">tnanci </tspan><tspan x="311.28" y="0" class="st5 st6">a</tspan><tspan x="329.6" y="0" class="st5 st6"> úř</tspan><tspan x="373.73" y="0" class="st5 st6">e</tspan><tspan x="391.21" y="0" class="st5 st6">dníci: </tspan></text>
<text transform="matrix(1 0 0 1 252.3878 274.8248)"><tspan x="0" y="0" class="st5 st6">kde pracu</tspan><tspan x="156.55" y="0" class="st5 st6">j</tspan><tspan x="167.13" y="0" class="st5 st6">í a </tspan><tspan x="213.19" y="0" class="st5 st6">z</tspan><tspan x="229.1" y="0" class="st5 st6">a kolik</tspan></text>
<text transform="matrix(1 0 0 1 587.1476 274.8248)" class="st5 st7">?</text>
<text transform="matrix(1 0 0 1 606.3478 274.8248)" class="st5 st7"> </text>
<text transform="matrix(1 0 0 1 378.8037 360.0559)"><tspan x="0" y="0" class="st5 st8">Leden 2</tspan><tspan x="70.84" y="0" class="st5 st8">0</tspan><tspan x="83.06" y="0" class="st5 st8">22</tspan></text>
<text transform="matrix(1 0 0 1 484.1841 360.0559)" class="st5 st8"> </text>
<path d="M236.63,419.06c0,1.18-0.22,2.21-0.67,3.07c-0.44,0.87-1.02,1.58-1.73,2.13c-0.72,0.55-1.52,0.97-2.42,1.24
	c-0.89,0.27-1.82,0.41-2.77,0.41h-5.75v-0.69c0.19,0,0.44-0.02,0.74-0.05c0.3-0.04,0.5-0.08,0.6-0.12c0.2-0.08,0.34-0.21,0.43-0.38
	c0.09-0.17,0.13-0.37,0.13-0.6v-10.02c0-0.22-0.04-0.42-0.11-0.6c-0.08-0.18-0.22-0.32-0.45-0.42c-0.2-0.1-0.42-0.17-0.66-0.22
	c-0.23-0.05-0.44-0.07-0.61-0.09v-0.69h6.07c0.83,0,1.66,0.13,2.47,0.39c0.81,0.26,1.51,0.61,2.11,1.04
	c0.82,0.58,1.45,1.34,1.92,2.28C236.39,416.68,236.63,417.79,236.63,419.06z M234.23,419.06c0-0.93-0.12-1.77-0.37-2.53
	c-0.25-0.75-0.61-1.41-1.09-1.97c-0.45-0.53-1-0.95-1.66-1.26c-0.66-0.31-1.38-0.46-2.19-0.46c-0.27,0-0.57,0-0.91,0.01
	c-0.34,0.01-0.59,0.02-0.75,0.02v10.67c0,0.59,0.17,1,0.52,1.23c0.35,0.23,0.88,0.34,1.59,0.34c0.83,0,1.55-0.15,2.17-0.44
	c0.62-0.29,1.12-0.7,1.51-1.22c0.4-0.55,0.7-1.18,0.89-1.9C234.14,420.84,234.23,420,234.23,419.06z M248.5,425.92h-4.83v-0.62
	c0.95-0.07,1.42-0.21,1.42-0.42c0-0.12-0.03-0.27-0.1-0.45l-0.78-2.02h-3.73c-0.52,1.24-0.77,1.99-0.77,2.24
	c0,0.37,0.51,0.58,1.52,0.65v0.62h-4.17v-0.62c0.74-0.05,1.26-0.32,1.56-0.82c0.3-0.49,1.01-2.09,2.11-4.78l1.8-4.34h0.72l3.63,8.89
	c0.27,0.66,0.81,1.01,1.62,1.05V425.92z M243.94,421.68l-1.57-3.99l-1.6,3.99H243.94z M260.57,416.13
	c-0.81,0.11-1.31,0.29-1.51,0.53c-0.2,0.24-0.3,0.85-0.3,1.83v7.53h-0.77l-6.84-8.42v5.17c0,0.98,0.11,1.62,0.34,1.91
	c0.23,0.3,0.78,0.5,1.64,0.62v0.62h-4.57v-0.62c0.82-0.09,1.32-0.27,1.52-0.55c0.2-0.27,0.3-0.91,0.3-1.9v-4.93
	c0-1.03-0.67-1.63-2-1.8v-0.63h3.37l6.25,7.76v-4.68c0-0.83-0.09-1.43-0.27-1.78c-0.18-0.35-0.74-0.58-1.68-0.68v-0.63h4.51V416.13z
	 M261.32,425.92v-0.62c0.76-0.06,1.22-0.14,1.4-0.23c0.18-0.09,0.26-0.3,0.26-0.62v-7.35c0-0.29-0.09-0.49-0.27-0.62
	c-0.18-0.12-0.56-0.23-1.13-0.32c-0.1-0.01-0.19-0.03-0.26-0.04v-0.63h5.2v0.63c-0.75,0.06-1.22,0.15-1.39,0.27
	c-0.18,0.12-0.27,0.33-0.27,0.63v7.35c0,0.4,0.22,0.66,0.65,0.77c0.43,0.11,0.77,0.16,1.01,0.16v0.62H261.32z M277.04,425.92h-9.26
	v-0.62c0.27,0,0.6-0.04,0.98-0.12c0.38-0.08,0.57-0.34,0.57-0.79v-7.27c0-0.29-0.08-0.5-0.23-0.63c-0.15-0.13-0.51-0.24-1.07-0.33
	c-0.1-0.01-0.19-0.03-0.25-0.04v-0.63h8.63v2.6h-0.64c-0.08-0.32-0.28-0.68-0.59-1.07c-0.31-0.39-0.59-0.63-0.83-0.72
	c-0.24-0.09-0.71-0.13-1.4-0.13h-1.72v4.04h1.04c0.46,0,0.8-0.05,1-0.15c0.21-0.1,0.39-0.3,0.55-0.6c0.16-0.3,0.25-0.61,0.28-0.95
	h0.64v4.07h-0.64c-0.04-0.43-0.16-0.83-0.37-1.2c-0.21-0.37-0.69-0.56-1.46-0.56h-1.04v3c0,0.63,0.09,1.01,0.27,1.16
	c0.18,0.15,0.72,0.22,1.6,0.22h0.51c0.87,0,1.41-0.07,1.61-0.21c0.2-0.14,0.46-0.47,0.79-0.99c0.32-0.52,0.53-0.95,0.62-1.27h0.62
	L277.04,425.92z M287.06,425.92h-8.88v-0.62c0.67-0.05,1.08-0.13,1.24-0.26c0.16-0.13,0.24-0.35,0.24-0.65v-7.25
	c0-0.44-0.24-0.72-0.72-0.84c-0.48-0.12-0.73-0.18-0.75-0.18v-0.63h4.89v0.63c-1.02,0.07-1.53,0.38-1.53,0.96v6.79
	c0,0.63,0.09,1.02,0.27,1.16c0.18,0.14,0.69,0.22,1.53,0.22c0.38,0,0.74-0.02,1.07-0.07c0.34-0.05,0.59-0.11,0.77-0.21
	c0.18-0.09,0.44-0.41,0.8-0.97c0.36-0.55,0.59-0.98,0.7-1.28h0.61L287.06,425.92z M302.97,419.45c0.4,0.27,0.74,0.63,1.01,1.08
	c0.27,0.44,0.4,0.98,0.4,1.61c0,0.65-0.14,1.21-0.42,1.68c-0.28,0.48-0.65,0.87-1.1,1.17c-0.44,0.3-0.93,0.53-1.48,0.68
	c-0.55,0.16-1.12,0.23-1.71,0.23h-6.58v-0.69c0.16-0.01,0.38-0.04,0.68-0.08c0.3-0.04,0.52-0.09,0.65-0.15
	c0.2-0.09,0.35-0.21,0.43-0.37c0.08-0.15,0.13-0.35,0.13-0.59v-9.98c0-0.22-0.04-0.42-0.11-0.59c-0.08-0.17-0.22-0.31-0.45-0.41
	c-0.2-0.1-0.41-0.17-0.66-0.23c-0.24-0.05-0.44-0.08-0.61-0.1v-0.69h6.41c0.5,0,0.97,0.05,1.42,0.15c0.45,0.1,0.89,0.27,1.3,0.52
	c0.38,0.23,0.7,0.54,0.95,0.93c0.25,0.39,0.37,0.87,0.37,1.43c0,0.49-0.09,0.92-0.26,1.31c-0.18,0.38-0.42,0.71-0.74,0.98
	c-0.3,0.26-0.64,0.48-1.03,0.66c-0.39,0.18-0.81,0.32-1.26,0.42v0.09c0.4,0.05,0.84,0.15,1.34,0.3
	C302.15,418.97,302.59,419.18,302.97,419.45z M300.6,417.36c0.24-0.28,0.41-0.59,0.5-0.92c0.09-0.33,0.14-0.73,0.14-1.19
	c0-0.76-0.21-1.36-0.62-1.8c-0.42-0.43-1.07-0.65-1.97-0.65c-0.21,0-0.47,0-0.79,0.01c-0.32,0.01-0.58,0.02-0.8,0.02v5.34h1.24
	c0.53,0,0.99-0.07,1.37-0.21S300.37,417.63,300.6,417.36z M301.96,421.79c0-0.82-0.28-1.5-0.83-2.03c-0.55-0.53-1.34-0.79-2.36-0.79
	c-0.42,0-0.77,0-1.06,0.01c-0.29,0.01-0.5,0.02-0.65,0.02v4.89c0,0.41,0.17,0.72,0.5,0.93c0.33,0.21,0.8,0.31,1.39,0.31
	c0.97,0,1.72-0.28,2.23-0.85C301.71,423.73,301.96,422.9,301.96,421.79z M316.14,425.92h-4.83v-0.62c0.95-0.07,1.42-0.21,1.42-0.42
	c0-0.12-0.03-0.27-0.1-0.45l-0.78-2.02h-3.73c-0.52,1.24-0.77,1.99-0.77,2.24c0,0.37,0.51,0.58,1.52,0.65v0.62h-4.17v-0.62
	c0.74-0.05,1.26-0.32,1.56-0.82c0.3-0.49,1.01-2.09,2.11-4.78l1.8-4.34h0.72l3.63,8.89c0.27,0.66,0.81,1.01,1.62,1.05V425.92z
	 M311.57,421.68l-1.57-3.99l-1.6,3.99H311.57z M327.56,425.92h-3c-1.07-1.61-2.24-3.18-3.52-4.71h-1.13v3.18
	c0,0.34,0.1,0.57,0.3,0.68c0.2,0.12,0.61,0.19,1.22,0.23v0.62h-4.89v-0.62l0.6-0.07c0.59-0.05,0.88-0.33,0.88-0.84v-7.31
	c0-0.33-0.07-0.55-0.22-0.67c-0.15-0.12-0.57-0.22-1.26-0.29v-0.63h5.33c1.09,0,1.98,0.22,2.67,0.66c0.69,0.44,1.03,1.05,1.03,1.82
	c0,1.4-0.9,2.34-2.7,2.81c0.27,0.34,0.52,0.65,0.74,0.94c0.22,0.29,0.41,0.55,0.6,0.78l1.34,1.6c0.44,0.53,0.8,0.86,1.07,0.99
	c0.27,0.12,0.58,0.19,0.93,0.2V425.92z M319.9,416.21v4.27h1.02c1.67,0,2.51-0.77,2.51-2.31c0-1.3-0.73-1.96-2.2-1.96H319.9z
	 M336.86,418.43h-0.65c-0.2-0.68-0.43-1.18-0.71-1.49c-0.28-0.32-0.5-0.52-0.67-0.61c-0.17-0.09-0.68-0.14-1.55-0.14h-0.44v8.13
	c0,0.48,0.33,0.77,0.98,0.86l0.81,0.13v0.62h-5.45v-0.62c0.25,0,0.61-0.04,1.09-0.12c0.48-0.08,0.71-0.35,0.71-0.81v-8.19h-0.46
	c-0.91,0-1.44,0.05-1.58,0.15c-0.14,0.1-0.34,0.29-0.61,0.58c-0.27,0.29-0.51,0.79-0.72,1.51h-0.65v-2.93h9.88V418.43z
	 M349.1,416.13c-0.07,0.01-0.16,0.03-0.27,0.04c-0.74,0.08-1.18,0.28-1.32,0.57c-0.14,0.3-0.21,0.8-0.21,1.51v4.29
	c0,1.14-0.37,2.03-1.12,2.68c-0.75,0.65-1.74,0.97-2.97,0.97c-1.31,0-2.36-0.28-3.16-0.83c-0.79-0.55-1.19-1.28-1.19-2.18v-6.05
	c0-0.57-0.49-0.9-1.47-1v-0.63h4.83v0.63c-0.08,0.01-0.17,0.02-0.26,0.03c-0.57,0.06-0.92,0.16-1.05,0.31
	c-0.13,0.15-0.19,0.34-0.19,0.58v5.55c0,1.77,0.92,2.66,2.77,2.66c0.87,0,1.58-0.24,2.13-0.73c0.54-0.49,0.82-1.12,0.82-1.91v-4.27
	c0-0.91-0.11-1.47-0.32-1.68c-0.21-0.21-0.76-0.39-1.65-0.54v-0.63h4.63V416.13z M354.14,426.15c-1.08,0-2.07-0.25-2.96-0.74
	l-0.33,0.52h-0.68l-0.12-3.57h0.68c0.64,2.04,1.75,3.05,3.33,3.05c1.34,0,2.01-0.59,2.01-1.76c0-0.48-0.13-0.87-0.4-1.15
	c-0.26-0.29-0.73-0.56-1.4-0.81c-1.04-0.36-1.81-0.67-2.31-0.94c-0.5-0.27-0.88-0.63-1.16-1.08c-0.28-0.45-0.42-0.96-0.42-1.55
	c0-0.82,0.32-1.5,0.96-2.03c0.64-0.53,1.45-0.79,2.41-0.79c0.79,0,1.6,0.24,2.42,0.71l0.32-0.5h0.68l0.08,3.46h-0.68
	c-0.54-1.98-1.52-2.96-2.93-2.96c-0.5,0-0.9,0.14-1.22,0.43c-0.32,0.29-0.48,0.68-0.48,1.17c0,0.5,0.15,0.87,0.44,1.12
	c0.29,0.25,0.9,0.53,1.83,0.85c1.39,0.44,2.32,0.94,2.78,1.5c0.47,0.55,0.7,1.19,0.7,1.91c0,0.92-0.33,1.68-0.99,2.28
	C356.03,425.85,355.18,426.15,354.14,426.15L354.14,426.15z M356.97,411.14l-2.29,2.78c-0.14,0.17-0.24,0.29-0.32,0.35
	c-0.08,0.06-0.27,0.09-0.59,0.09c-0.27,0-0.45-0.04-0.55-0.11c-0.1-0.07-0.2-0.17-0.3-0.29l-2.31-2.82l0.47-0.31l2.73,2.09
	l2.69-2.09L356.97,411.14z M368.26,425.92h-9.26v-0.62c0.27,0,0.6-0.04,0.98-0.12c0.38-0.08,0.57-0.34,0.57-0.79v-7.27
	c0-0.29-0.08-0.5-0.23-0.63c-0.15-0.13-0.51-0.24-1.07-0.33c-0.1-0.01-0.19-0.03-0.25-0.04v-0.63h8.63v2.6H367
	c-0.08-0.32-0.28-0.68-0.59-1.07c-0.31-0.39-0.59-0.63-0.83-0.72c-0.24-0.09-0.71-0.13-1.4-0.13h-1.72v4.04h1.04
	c0.46,0,0.8-0.05,1-0.15c0.21-0.1,0.39-0.3,0.55-0.6c0.16-0.3,0.25-0.61,0.28-0.95h0.64v4.07h-0.64c-0.04-0.43-0.16-0.83-0.37-1.2
	c-0.21-0.37-0.69-0.56-1.46-0.56h-1.04v3c0,0.63,0.09,1.01,0.27,1.16c0.18,0.15,0.72,0.22,1.6,0.22h0.51c0.87,0,1.41-0.07,1.61-0.21
	c0.2-0.14,0.46-0.47,0.79-0.99c0.32-0.52,0.53-0.95,0.62-1.27h0.62L368.26,425.92z M380.52,425.92h-3.21
	c-1.27-1.85-2.67-3.55-4.21-5.09h-0.2v3.52c0,0.31,0.1,0.53,0.29,0.67c0.19,0.13,0.59,0.23,1.19,0.28v0.62h-4.8v-0.62l0.52-0.05
	c0.61-0.06,0.92-0.33,0.92-0.82v-7.31c0-0.33-0.13-0.57-0.39-0.72c-0.26-0.15-0.61-0.24-1.05-0.28v-0.63h4.8v0.63
	c-0.58,0.04-0.97,0.13-1.17,0.26c-0.2,0.14-0.3,0.36-0.3,0.66v3.48h0.14c2.5-2.03,3.75-3.37,3.75-4.03c0-0.19-0.36-0.31-1.08-0.37
	v-0.63h4.17v0.63c-0.26,0-0.58,0.05-0.97,0.16c-0.38,0.1-0.68,0.26-0.88,0.46c-1.12,1.22-2.21,2.3-3.27,3.25
	c0.8,0.87,1.45,1.59,1.97,2.18l1.7,1.93c0.72,0.82,1.41,1.22,2.08,1.2V425.92z M384.46,425.58c0,0.47-0.11,0.91-0.32,1.33
	c-0.21,0.42-0.46,0.78-0.73,1.08c-0.28,0.31-0.58,0.59-0.89,0.83c-0.31,0.24-0.6,0.43-0.86,0.57l-0.45-0.66
	c0.31-0.2,0.59-0.39,0.84-0.59c0.25-0.2,0.45-0.39,0.61-0.59c0.2-0.23,0.36-0.48,0.5-0.74c0.14-0.27,0.23-0.57,0.26-0.91h-0.5
	c-0.44,0-0.78-0.11-1.02-0.34c-0.24-0.23-0.37-0.53-0.37-0.92c0-0.27,0.11-0.54,0.33-0.8c0.22-0.26,0.53-0.39,0.91-0.39
	c0.56,0,0.98,0.19,1.26,0.56C384.32,424.39,384.46,424.91,384.46,425.58z M402.09,415.46c0,0.72-0.14,1.37-0.43,1.92
	c-0.28,0.56-0.68,1.02-1.18,1.38c-0.5,0.37-1.04,0.63-1.63,0.8c-0.59,0.17-1.22,0.25-1.89,0.25h-1.56v4.21
	c0,0.23,0.04,0.43,0.11,0.6c0.07,0.17,0.23,0.31,0.46,0.4c0.12,0.05,0.32,0.09,0.62,0.13c0.3,0.04,0.57,0.06,0.82,0.07v0.69h-5.96
	v-0.69c0.16-0.01,0.38-0.04,0.68-0.07c0.3-0.03,0.5-0.07,0.62-0.13c0.2-0.08,0.34-0.21,0.43-0.37c0.09-0.16,0.13-0.37,0.13-0.63
	v-10.02c0-0.23-0.03-0.43-0.1-0.62c-0.07-0.18-0.22-0.32-0.46-0.41c-0.25-0.08-0.49-0.15-0.74-0.18c-0.24-0.04-0.45-0.06-0.63-0.07
	v-0.69h6.34c1.29,0,2.34,0.31,3.15,0.93C401.69,413.59,402.09,414.42,402.09,415.46z M399.12,417.83c0.22-0.31,0.37-0.64,0.44-0.97
	c0.07-0.34,0.11-0.64,0.11-0.91c0-0.37-0.04-0.75-0.13-1.14c-0.09-0.38-0.24-0.72-0.45-1.01c-0.23-0.31-0.53-0.54-0.9-0.71
	c-0.37-0.17-0.84-0.25-1.39-0.25h-1.38v6.14h1c0.7,0,1.28-0.11,1.72-0.33C398.56,418.43,398.89,418.16,399.12,417.83z
	 M412.67,425.92h-9.26v-0.62c0.27,0,0.6-0.04,0.98-0.12c0.38-0.08,0.57-0.34,0.57-0.79v-7.27c0-0.29-0.08-0.5-0.23-0.63
	c-0.15-0.13-0.51-0.24-1.07-0.33c-0.1-0.01-0.19-0.03-0.25-0.04v-0.63h8.63v2.6h-0.64c-0.08-0.32-0.28-0.68-0.59-1.07
	c-0.31-0.39-0.59-0.63-0.83-0.72c-0.24-0.09-0.71-0.13-1.4-0.13h-1.72v4.04h1.04c0.46,0,0.8-0.05,1-0.15c0.21-0.1,0.39-0.3,0.55-0.6
	c0.16-0.3,0.25-0.61,0.28-0.95h0.64v4.07h-0.64c-0.04-0.43-0.16-0.83-0.37-1.2c-0.21-0.37-0.69-0.56-1.46-0.56h-1.04v3
	c0,0.63,0.09,1.01,0.27,1.16c0.18,0.15,0.72,0.22,1.6,0.22h0.51c0.87,0,1.41-0.07,1.61-0.21c0.2-0.14,0.46-0.47,0.79-0.99
	c0.32-0.52,0.53-0.95,0.62-1.27h0.62L412.67,425.92z M423.19,418.43h-0.65c-0.2-0.68-0.43-1.18-0.71-1.49
	c-0.28-0.32-0.5-0.52-0.67-0.61c-0.17-0.09-0.68-0.14-1.55-0.14h-0.44v8.13c0,0.48,0.33,0.77,0.98,0.86l0.81,0.13v0.62h-5.45v-0.62
	c0.25,0,0.61-0.04,1.09-0.12c0.48-0.08,0.71-0.35,0.71-0.81v-8.19h-0.46c-0.91,0-1.44,0.05-1.58,0.15c-0.14,0.1-0.34,0.29-0.61,0.58
	c-0.27,0.29-0.51,0.79-0.72,1.51h-0.65v-2.93h9.88V418.43z M435.01,425.92h-3c-1.07-1.61-2.24-3.18-3.52-4.71h-1.13v3.18
	c0,0.34,0.1,0.57,0.3,0.68c0.2,0.12,0.61,0.19,1.22,0.23v0.62h-4.89v-0.62l0.6-0.07c0.59-0.05,0.88-0.33,0.88-0.84v-7.31
	c0-0.33-0.07-0.55-0.22-0.67c-0.15-0.12-0.57-0.22-1.26-0.29v-0.63h5.33c1.09,0,1.98,0.22,2.67,0.66c0.69,0.44,1.03,1.05,1.03,1.82
	c0,1.4-0.9,2.34-2.7,2.81c0.27,0.34,0.52,0.65,0.74,0.94c0.22,0.29,0.41,0.55,0.6,0.78l1.34,1.6c0.44,0.53,0.8,0.86,1.07,0.99
	c0.27,0.12,0.58,0.19,0.93,0.2V425.92z M427.36,416.21v4.27h1.02c1.67,0,2.5-0.77,2.5-2.31c0-1.3-0.73-1.96-2.2-1.96H427.36z
	 M450.45,419.45c0.4,0.27,0.74,0.63,1.01,1.08c0.27,0.44,0.4,0.98,0.4,1.61c0,0.65-0.14,1.21-0.42,1.68
	c-0.28,0.48-0.65,0.87-1.1,1.17c-0.44,0.3-0.93,0.53-1.48,0.68c-0.55,0.16-1.12,0.23-1.71,0.23h-6.58v-0.69
	c0.16-0.01,0.38-0.04,0.68-0.08c0.3-0.04,0.52-0.09,0.65-0.15c0.2-0.09,0.35-0.21,0.43-0.37c0.08-0.15,0.13-0.35,0.13-0.59v-9.98
	c0-0.22-0.04-0.42-0.11-0.59c-0.08-0.17-0.22-0.31-0.45-0.41c-0.2-0.1-0.41-0.17-0.66-0.23c-0.24-0.05-0.44-0.08-0.61-0.1v-0.69
	h6.41c0.5,0,0.97,0.05,1.42,0.15c0.45,0.1,0.89,0.27,1.3,0.52c0.38,0.23,0.7,0.54,0.95,0.93c0.25,0.39,0.37,0.87,0.37,1.43
	c0,0.49-0.09,0.92-0.26,1.31c-0.18,0.38-0.42,0.71-0.74,0.98c-0.3,0.26-0.64,0.48-1.03,0.66c-0.39,0.18-0.81,0.32-1.26,0.42v0.09
	c0.4,0.05,0.84,0.15,1.34,0.3C449.62,418.97,450.06,419.18,450.45,419.45z M448.08,417.36c0.24-0.28,0.41-0.59,0.5-0.92
	c0.09-0.33,0.14-0.73,0.14-1.19c0-0.76-0.21-1.36-0.62-1.8c-0.42-0.43-1.07-0.65-1.97-0.65c-0.21,0-0.47,0-0.79,0.01
	c-0.32,0.01-0.58,0.02-0.8,0.02v5.34h1.24c0.53,0,0.99-0.07,1.37-0.21C447.54,417.84,447.85,417.63,448.08,417.36z M449.44,421.79
	c0-0.82-0.28-1.5-0.83-2.03c-0.55-0.53-1.34-0.79-2.36-0.79c-0.42,0-0.77,0-1.06,0.01c-0.29,0.01-0.5,0.02-0.65,0.02v4.89
	c0,0.41,0.17,0.72,0.5,0.93c0.33,0.21,0.8,0.31,1.39,0.31c0.97,0,1.72-0.28,2.23-0.85C449.18,423.73,449.44,422.9,449.44,421.79z
	 M463.93,420.74c0,1.59-0.52,2.9-1.55,3.92c-1.03,1.02-2.29,1.53-3.79,1.53c-1.53,0-2.8-0.51-3.82-1.54
	c-1.02-1.03-1.53-2.33-1.53-3.91c0-1.59,0.52-2.89,1.55-3.93c1.03-1.03,2.3-1.55,3.8-1.55c1.53,0,2.8,0.51,3.82,1.54
	C463.43,417.82,463.93,419.14,463.93,420.74z M461.85,420.74c0-3.16-1.08-4.74-3.25-4.74c-2.16,0-3.24,1.58-3.24,4.74
	c0,3.12,1.08,4.69,3.24,4.69c1.05,0,1.86-0.41,2.42-1.22C461.57,423.39,461.85,422.24,461.85,420.74z M476.83,416.13
	c-0.07,0.01-0.16,0.03-0.27,0.04c-0.74,0.08-1.18,0.28-1.32,0.57c-0.14,0.3-0.21,0.8-0.21,1.51v4.29c0,1.14-0.37,2.03-1.12,2.68
	c-0.75,0.65-1.74,0.97-2.97,0.97c-1.31,0-2.36-0.28-3.16-0.83c-0.79-0.55-1.19-1.28-1.19-2.18v-6.05c0-0.57-0.49-0.9-1.47-1v-0.63
	h4.83v0.63c-0.08,0.01-0.17,0.02-0.26,0.03c-0.57,0.06-0.92,0.16-1.05,0.31c-0.13,0.15-0.19,0.34-0.19,0.58v5.55
	c0,1.77,0.92,2.66,2.77,2.66c0.87,0,1.58-0.24,2.13-0.73c0.54-0.49,0.82-1.12,0.82-1.91v-4.27c0-0.91-0.11-1.47-0.32-1.68
	c-0.21-0.21-0.76-0.39-1.65-0.54v-0.63h4.63V416.13z M482.89,415.29c1,0,1.93,0.24,2.77,0.71l0.38-0.5h0.66l0.08,3.73h-0.68
	c-0.56-2.15-1.6-3.23-3.11-3.23c-1.09,0-1.91,0.43-2.47,1.28c-0.56,0.85-0.84,2-0.84,3.43c0,1.3,0.32,2.38,0.95,3.24
	c0.64,0.85,1.51,1.28,2.62,1.28c1.46,0,2.54-0.74,3.25-2.22l0.66,0.32c-0.83,1.89-2.33,2.83-4.5,2.83c-1.46,0-2.67-0.52-3.63-1.57
	c-0.96-1.04-1.43-2.31-1.43-3.79c0-1.57,0.51-2.89,1.52-3.94C480.13,415.81,481.39,415.29,482.89,415.29L482.89,415.29z
	 M495.06,425.92v-0.62l0.54-0.05c0.63-0.06,0.94-0.33,0.94-0.82v-3.54h-5.11v3.46c0,0.32,0.1,0.54,0.31,0.68
	c0.21,0.13,0.58,0.22,1.13,0.27v0.62h-4.8v-0.62l0.54-0.05c0.39-0.03,0.65-0.12,0.76-0.25c0.12-0.13,0.18-0.32,0.18-0.57v-7.31
	c0-0.58-0.49-0.91-1.48-1v-0.63h4.8v0.63c-0.55,0.03-0.92,0.12-1.13,0.25c-0.21,0.14-0.31,0.36-0.31,0.67v3.08h5.11v-3
	c0-0.58-0.49-0.91-1.48-1v-0.63h4.8v0.63c-0.97,0.04-1.46,0.35-1.46,0.92v7.31c0,0.33,0.12,0.56,0.35,0.69
	c0.23,0.14,0.6,0.22,1.11,0.25v0.62H495.06z M511.79,425.92h-4.83v-0.62c0.95-0.07,1.42-0.21,1.42-0.42c0-0.12-0.03-0.27-0.1-0.45
	l-0.78-2.02h-3.73c-0.52,1.24-0.77,1.99-0.77,2.24c0,0.37,0.51,0.58,1.52,0.65v0.62h-4.17v-0.62c0.74-0.05,1.26-0.32,1.56-0.82
	c0.3-0.49,1.01-2.09,2.11-4.78l1.8-4.34h0.72l3.63,8.89c0.27,0.66,0.81,1.01,1.62,1.05V425.92z M507.22,421.68l-1.57-3.99l-1.6,3.99
	H507.22z M521.07,425.92h-8.88v-0.62c0.67-0.05,1.08-0.13,1.24-0.26c0.16-0.13,0.24-0.35,0.24-0.65v-7.25
	c0-0.44-0.24-0.72-0.72-0.84c-0.48-0.12-0.73-0.18-0.75-0.18v-0.63h4.89v0.63c-1.02,0.07-1.53,0.38-1.53,0.96v6.79
	c0,0.63,0.09,1.02,0.27,1.16c0.18,0.14,0.69,0.22,1.53,0.22c0.38,0,0.74-0.02,1.07-0.07c0.34-0.05,0.59-0.11,0.77-0.21
	c0.18-0.09,0.44-0.41,0.8-0.97c0.36-0.55,0.59-0.98,0.7-1.28h0.61L521.07,425.92z M525.54,425.58c0,0.47-0.11,0.91-0.32,1.33
	c-0.21,0.42-0.46,0.78-0.73,1.08c-0.28,0.31-0.58,0.59-0.89,0.83c-0.31,0.24-0.6,0.43-0.86,0.57l-0.45-0.66
	c0.31-0.2,0.59-0.39,0.84-0.59c0.25-0.2,0.45-0.39,0.61-0.59c0.2-0.23,0.36-0.48,0.5-0.74c0.14-0.27,0.23-0.57,0.26-0.91h-0.5
	c-0.44,0-0.78-0.11-1.02-0.34c-0.24-0.23-0.37-0.53-0.37-0.92c0-0.27,0.11-0.54,0.33-0.8c0.22-0.26,0.53-0.39,0.91-0.39
	c0.56,0,0.98,0.19,1.26,0.56C525.4,424.39,525.54,424.91,525.54,425.58z M543.17,415.46c0,0.72-0.14,1.37-0.43,1.92
	c-0.28,0.56-0.68,1.02-1.18,1.38c-0.5,0.37-1.04,0.63-1.63,0.8c-0.59,0.17-1.22,0.25-1.89,0.25h-1.56v4.21
	c0,0.23,0.04,0.43,0.11,0.6c0.07,0.17,0.23,0.31,0.46,0.4c0.12,0.05,0.32,0.09,0.62,0.13c0.3,0.04,0.57,0.06,0.82,0.07v0.69h-5.96
	v-0.69c0.16-0.01,0.38-0.04,0.68-0.07c0.3-0.03,0.5-0.07,0.62-0.13c0.2-0.08,0.34-0.21,0.43-0.37c0.09-0.16,0.13-0.37,0.13-0.63
	v-10.02c0-0.23-0.03-0.43-0.1-0.62c-0.07-0.18-0.22-0.32-0.46-0.41c-0.25-0.08-0.49-0.15-0.74-0.18c-0.24-0.04-0.46-0.06-0.63-0.07
	v-0.69h6.34c1.29,0,2.34,0.31,3.15,0.93C542.77,413.59,543.17,414.42,543.17,415.46z M540.2,417.83c0.22-0.31,0.37-0.64,0.44-0.97
	c0.07-0.34,0.11-0.64,0.11-0.91c0-0.37-0.04-0.75-0.13-1.14c-0.09-0.38-0.24-0.72-0.45-1.01c-0.23-0.31-0.53-0.54-0.9-0.71
	c-0.37-0.17-0.84-0.25-1.39-0.25h-1.38v6.14h1c0.7,0,1.28-0.11,1.72-0.33C539.65,418.43,539.98,418.16,540.2,417.83z M553.75,425.92
	h-9.26v-0.62c0.27,0,0.6-0.04,0.98-0.12c0.38-0.08,0.57-0.34,0.57-0.79v-7.27c0-0.29-0.08-0.5-0.23-0.63
	c-0.15-0.13-0.51-0.24-1.07-0.33c-0.1-0.01-0.19-0.03-0.25-0.04v-0.63h8.63v2.6h-0.64c-0.08-0.32-0.28-0.68-0.59-1.07
	c-0.31-0.39-0.59-0.63-0.83-0.72c-0.24-0.09-0.71-0.13-1.4-0.13h-1.72v4.04h1.04c0.46,0,0.8-0.05,1-0.15c0.21-0.1,0.39-0.3,0.55-0.6
	c0.16-0.3,0.25-0.61,0.28-0.95h0.64v4.07h-0.64c-0.04-0.43-0.16-0.83-0.37-1.2c-0.21-0.37-0.69-0.56-1.46-0.56h-1.04v3
	c0,0.63,0.09,1.01,0.27,1.16c0.18,0.15,0.72,0.22,1.6,0.22h0.51c0.87,0,1.41-0.07,1.61-0.21c0.2-0.14,0.46-0.47,0.79-0.99
	c0.32-0.52,0.53-0.95,0.62-1.27h0.62L553.75,425.92z M564.27,418.43h-0.65c-0.2-0.68-0.43-1.18-0.71-1.49
	c-0.28-0.32-0.5-0.52-0.67-0.61c-0.17-0.09-0.68-0.14-1.55-0.14h-0.44v8.13c0,0.48,0.33,0.77,0.98,0.86l0.81,0.13v0.62h-5.45v-0.62
	c0.25,0,0.61-0.04,1.09-0.12c0.48-0.08,0.71-0.35,0.71-0.81v-8.19h-0.46c-0.91,0-1.44,0.05-1.58,0.15c-0.14,0.1-0.34,0.29-0.61,0.58
	c-0.27,0.29-0.51,0.79-0.72,1.51h-0.65v-2.93h9.88V418.43z M576.01,425.92h-3c-1.07-1.61-2.24-3.18-3.52-4.71h-1.13v3.18
	c0,0.34,0.1,0.57,0.3,0.68c0.2,0.12,0.61,0.19,1.22,0.23v0.62H565v-0.62l0.6-0.07c0.59-0.05,0.88-0.33,0.88-0.84v-7.31
	c0-0.33-0.07-0.55-0.22-0.67c-0.15-0.12-0.57-0.22-1.26-0.29v-0.63h5.33c1.09,0,1.98,0.22,2.67,0.66c0.69,0.44,1.03,1.05,1.03,1.82
	c0,1.4-0.9,2.34-2.7,2.81c0.27,0.34,0.52,0.65,0.74,0.94c0.22,0.29,0.41,0.55,0.6,0.78l1.34,1.6c0.44,0.53,0.8,0.86,1.07,0.99
	c0.27,0.12,0.58,0.19,0.93,0.2V425.92z M568.36,416.21v4.27h1.02c1.67,0,2.51-0.77,2.51-2.31c0-1.3-0.73-1.96-2.2-1.96H568.36z
	 M590.49,412.73c-0.18,0.01-0.41,0.03-0.68,0.07c-0.27,0.04-0.5,0.1-0.69,0.16c-0.22,0.08-0.37,0.21-0.45,0.39
	c-0.08,0.18-0.12,0.38-0.12,0.6v8.23c0,0.43-0.09,0.89-0.26,1.37c-0.17,0.48-0.43,0.91-0.76,1.29c-0.39,0.44-0.84,0.79-1.37,1.04
	c-0.53,0.25-1.14,0.37-1.82,0.37c-1.06,0-1.93-0.3-2.59-0.9c-0.66-0.6-0.99-1.4-0.99-2.41c0-0.44,0.11-0.84,0.34-1.18
	c0.23-0.34,0.56-0.51,1-0.51c0.39,0,0.71,0.11,0.94,0.33c0.24,0.22,0.36,0.51,0.36,0.87c0,0.21-0.04,0.42-0.13,0.63
	c-0.08,0.21-0.18,0.39-0.28,0.56c-0.1,0.15-0.21,0.33-0.33,0.53c-0.12,0.2-0.21,0.38-0.26,0.55c0.14,0.22,0.35,0.4,0.64,0.57
	c0.29,0.16,0.68,0.24,1.17,0.24c0.48,0,0.87-0.11,1.17-0.33c0.3-0.22,0.53-0.51,0.68-0.88c0.14-0.34,0.25-0.76,0.31-1.25
	c0.06-0.5,0.09-1.05,0.09-1.66v-7.35c0-0.23-0.04-0.42-0.11-0.57c-0.08-0.15-0.23-0.29-0.46-0.41c-0.2-0.1-0.46-0.18-0.76-0.24
	c-0.3-0.06-0.55-0.09-0.75-0.1v-0.69h6.13V412.73z M601.27,425.92h-4.83v-0.62c0.95-0.07,1.42-0.21,1.42-0.42
	c0-0.12-0.03-0.27-0.1-0.45l-0.78-2.02h-3.73c-0.52,1.24-0.77,1.99-0.77,2.24c0,0.37,0.51,0.58,1.52,0.65v0.62h-4.17v-0.62
	c0.74-0.05,1.26-0.32,1.56-0.82c0.3-0.49,1.01-2.09,2.11-4.78l1.8-4.34h0.72l3.63,8.89c0.27,0.66,0.81,1.01,1.62,1.05V425.92z
	 M596.7,421.68l-1.57-3.99l-1.6,3.99H596.7z M613.33,416.13c-0.81,0.11-1.31,0.29-1.51,0.53c-0.2,0.24-0.3,0.85-0.3,1.83v7.53h-0.77
	l-6.84-8.42v5.17c0,0.98,0.11,1.62,0.34,1.91c0.23,0.3,0.78,0.5,1.64,0.62v0.62h-4.57v-0.62c0.82-0.09,1.32-0.27,1.52-0.55
	c0.2-0.27,0.3-0.91,0.3-1.9v-4.93c0-1.03-0.67-1.63-2-1.8v-0.63h3.37l6.25,7.76v-4.68c0-0.83-0.09-1.43-0.27-1.78
	c-0.18-0.35-0.74-0.58-1.68-0.68v-0.63h4.51V416.13z M618.35,426.15c-1.08,0-2.07-0.25-2.96-0.74l-0.33,0.52h-0.68l-0.12-3.57h0.68
	c0.64,2.04,1.75,3.05,3.33,3.05c1.34,0,2.01-0.59,2.01-1.76c0-0.48-0.13-0.87-0.4-1.15c-0.26-0.29-0.73-0.56-1.4-0.81
	c-1.04-0.36-1.81-0.67-2.31-0.94c-0.5-0.27-0.88-0.63-1.16-1.08c-0.28-0.45-0.42-0.96-0.42-1.55c0-0.82,0.32-1.5,0.96-2.03
	c0.64-0.53,1.45-0.79,2.41-0.79c0.79,0,1.59,0.24,2.42,0.71l0.32-0.5h0.68l0.08,3.46h-0.68c-0.54-1.98-1.52-2.96-2.93-2.96
	c-0.5,0-0.9,0.14-1.22,0.43c-0.32,0.29-0.48,0.68-0.48,1.17c0,0.5,0.15,0.87,0.44,1.12c0.29,0.25,0.9,0.53,1.83,0.85
	c1.39,0.44,2.32,0.94,2.78,1.5c0.47,0.55,0.7,1.19,0.7,1.91c0,0.92-0.33,1.68-0.99,2.28C620.24,425.85,619.39,426.15,618.35,426.15
	L618.35,426.15z M634.27,425.92h-3.21c-1.27-1.85-2.67-3.55-4.21-5.09h-0.2v3.52c0,0.31,0.1,0.53,0.29,0.67
	c0.19,0.13,0.59,0.23,1.19,0.28v0.62h-4.8v-0.62l0.52-0.05c0.61-0.06,0.92-0.33,0.92-0.82v-7.31c0-0.33-0.13-0.57-0.39-0.72
	c-0.26-0.15-0.61-0.24-1.05-0.28v-0.63h4.8v0.63c-0.58,0.04-0.97,0.13-1.17,0.26c-0.2,0.14-0.3,0.36-0.3,0.66v3.48h0.14
	c2.5-2.03,3.75-3.37,3.75-4.03c0-0.19-0.36-0.31-1.08-0.37v-0.63h4.17v0.63c-0.26,0-0.58,0.05-0.97,0.16
	c-0.39,0.1-0.68,0.26-0.88,0.46c-1.12,1.22-2.21,2.3-3.27,3.25c0.8,0.87,1.45,1.59,1.97,2.18l1.7,1.93c0.72,0.82,1.41,1.22,2.08,1.2
	V425.92z M644.53,416.13c-0.29,0.04-0.54,0.12-0.77,0.23c-0.23,0.11-0.42,0.27-0.6,0.47c-0.17,0.2-0.51,0.66-1.02,1.39
	c-0.51,0.73-0.97,1.43-1.38,2.1c-0.41,0.67-0.65,1.09-0.71,1.26c-0.06,0.17-0.09,0.45-0.09,0.84v1.88c0,0.42,0.2,0.69,0.6,0.81
	c0.4,0.12,0.79,0.19,1.16,0.2v0.62h-5.39v-0.62c0.71-0.03,1.18-0.12,1.42-0.26c0.23-0.14,0.35-0.36,0.35-0.67v-2.34
	c0-0.26-0.52-1.25-1.57-2.96c-0.03-0.05-0.06-0.11-0.09-0.17c-0.59-1.11-1.07-1.84-1.44-2.2c-0.37-0.36-0.8-0.55-1.3-0.58v-0.63
	h4.83v0.63c-0.91,0.02-1.37,0.14-1.37,0.35c0,0.18,0.55,1.21,1.64,3.07l0.72,1.24c1.68-2.49,2.52-3.86,2.52-4.11
	c0-0.31-0.49-0.49-1.46-0.56v-0.63h3.92V416.13z M641.26,412.71c-0.29,0.14-0.73,0.36-1.34,0.65c-0.6,0.29-1.29,0.62-2.05,0.99
	l-0.3-0.38c0.59-0.57,1.08-1.04,1.45-1.4c0.38-0.37,0.75-0.75,1.11-1.13c0.21-0.22,0.4-0.38,0.57-0.47
	c0.17-0.09,0.36-0.14,0.55-0.14c0.25,0,0.46,0.08,0.64,0.23c0.18,0.15,0.26,0.34,0.26,0.56c0,0.28-0.08,0.5-0.25,0.67
	C641.74,412.43,641.53,412.58,641.26,412.71z"/>
<path class="st9" d="M584.78,510.2l-0.25-0.67h-2.82c-0.08-3.03-1.24-5.92-3.29-8.57c0.2-0.05,0.4-0.1,0.6-0.14l0.14-0.04
	c-0.16-0.19-0.33-0.38-0.5-0.57c-0.24,0.06-0.48,0.11-0.72,0.17c-4.15-4.96-11.43-9-20.49-11.38l0.68-0.14l0.12-0.02
	c-0.23-0.18-0.47-0.37-0.71-0.54l-1.62,0.33c-5.32-1.26-11.2-1.97-17.38-1.97v0.67c2.29,0,4.44,1.09,6.3,2.99
	c-1.75,0.11-3.79,0.16-6.32,0.16h-0.34v0.67h0.34c2.82,0,5.02-0.07,6.9-0.2c2.6,3,4.54,7.63,5.36,13.08
	c-0.84,0.02-1.68,0.03-2.55,0.03h-10.05v0.67h10.05c0.9,0,1.78-0.01,2.64-0.03c0.2,1.55,0.32,3.17,0.33,4.82H284.31v0.67h266.91
	c-0.02,1.64-0.13,3.24-0.33,4.78c-0.87-0.02-1.75-0.03-2.65-0.03h-10.05v0.67h10.05c0.87,0,1.72,0.01,2.56,0.03
	c-0.82,5.45-2.75,10.1-5.35,13.11c-1.89-0.13-4.1-0.2-6.92-0.2h-0.34v0.67h0.34c2.55,0,4.58,0.06,6.34,0.16
	c-1.86,1.91-4.02,3.01-6.32,3.01v0.67c6.2,0,12.1-0.71,17.43-1.98l1.59,0.32c0.24-0.18,0.48-0.36,0.71-0.54l-0.15-0.03l-0.64-0.13
	c9.06-2.39,16.34-6.44,20.48-11.41c0.24,0.06,0.48,0.12,0.72,0.17c0.17-0.19,0.34-0.38,0.5-0.57l-0.17-0.04
	c-0.19-0.05-0.38-0.09-0.57-0.14c2.03-2.64,3.18-5.51,3.26-8.53H584.78z M581.04,509.53h-14c-0.04-2.11-0.43-4.15-1.11-6.08
	c4.27-0.64,8.15-1.46,11.8-2.32C579.79,503.72,580.96,506.56,581.04,509.53 M555.94,489.31c9.41,2.25,17.02,6.26,21.3,11.24
	c-3.57,0.84-7.37,1.63-11.55,2.25c-2.14-5.45-6.7-10.03-12.64-12.9c0.7-0.14,1.43-0.29,2.22-0.45L555.94,489.31z M554.35,488.95
	c-0.82,0.17-1.59,0.32-2.34,0.47c-1.43-0.63-2.94-1.16-4.51-1.58C549.86,488.11,552.15,488.48,554.35,488.95 M542.15,487.53
	c3.06,0.32,5.97,1.05,8.64,2.11c-1.59,0.27-3.19,0.48-5.12,0.63C544.6,489.07,543.41,488.14,542.15,487.53 M546.22,490.9
	c2.14-0.17,3.88-0.44,5.71-0.78c6.14,2.74,10.87,7.31,13.07,12.79c-4.09,0.58-8.56,0.99-13.54,1.12
	C550.66,498.64,548.77,494.02,546.22,490.9 M551.55,504.69c5.04-0.13,9.56-0.55,13.7-1.14c0.69,1.9,1.08,3.91,1.11,5.98h-14.47
	C551.87,507.87,551.76,506.25,551.55,504.69 M566.36,510.2c-0.04,2.06-0.42,4.05-1.1,5.94c-4.14-0.6-8.66-1.01-13.7-1.14
	c0.2-1.55,0.31-3.15,0.32-4.8H566.36z M551.47,515.67c4.98,0.13,9.45,0.54,13.55,1.12c-2.19,5.49-6.92,10.06-13.05,12.81
	c-1.84-0.35-3.59-0.61-5.73-0.79C548.78,525.69,550.67,521.06,551.47,515.67 M545.7,529.45c1.94,0.14,3.54,0.36,5.14,0.63
	c-2.68,1.07-5.6,1.81-8.68,2.13C543.42,531.59,544.61,530.66,545.7,529.45 M547.5,531.9c1.58-0.43,3.1-0.96,4.55-1.6
	c0.76,0.14,1.53,0.3,2.36,0.47C552.19,531.25,549.88,531.63,547.5,531.9 M555.99,530.42l-0.73-0.15c-0.77-0.16-1.49-0.31-2.18-0.44
	c5.94-2.89,10.49-7.47,12.62-12.93c4.18,0.62,7.98,1.41,11.56,2.25C573,524.14,565.41,528.16,555.99,530.42 M577.76,518.57
	c-3.65-0.86-7.53-1.68-11.81-2.32c0.68-1.93,1.06-3.95,1.09-6.04h14C580.96,513.16,579.8,515.99,577.76,518.57"/>
<polygon class="st10" points="514.03,514.92 525.71,514.92 525.71,518.66 518.03,518.66 518.03,523.96 525.38,523.96 525.38,527.7 
	518.03,527.7 518.03,532.87 525.71,532.87 525.71,536.62 514.03,536.62 "/>
<rect x="528.18" y="514.92" class="st10" width="4" height="21.7"/>
<path class="st10" d="M466.37,498.72c-1.66,3.84-5.69,6.44-10.02,6.44c-6.21,0-11.32-5.14-11.32-11.35
	c0-6.12,5.07-11.19,11.22-11.19c2.7,0,5.24,0.94,7.32,2.7c1.43,1.2,2.15,2.15,2.93,3.94h-4.59c-1.66-1.92-3.58-2.86-5.82-2.86
	c-3.81,0-7.06,3.45-7.06,7.48c0,4.07,3.35,7.55,7.22,7.55c2.08,0,3.61-0.75,5.47-2.7H466.37z"/>
<polygon class="st10" points="467.54,483.04 479.22,483.04 479.22,486.78 471.54,486.78 471.54,492.08 478.89,492.08 478.89,495.82 
	471.54,495.82 471.54,501 479.22,501 479.22,504.74 467.54,504.74 "/>
<path class="st10" d="M481.69,483.04h6.64c2.64,0,4.26,0.52,5.63,1.76c1.4,1.3,2.18,3.06,2.18,4.95c0,2.11-0.91,4.23-2.37,5.46
	c-0.91,0.78-1.69,1.14-3.29,1.53l5.89,8h-4.88l-5.79-8.3v8.3h-4V483.04z M488.26,493.42c2.41,0,3.87-1.27,3.87-3.35
	c0-2.02-1.5-3.29-3.84-3.29h-2.6v6.64H488.26z"/>
<path class="st10" d="M505.57,493.71h14.15v0.46c0,5.99-5.24,11-11.52,11c-6.44,0-11.65-5.01-11.65-11.26
	c0-6.18,5.24-11.29,11.55-11.29c4.62,0,9.14,2.93,10.51,6.8h-4.78c-1.27-1.89-3.45-3.03-5.79-3.03c-2.08,0-4.03,0.81-5.37,2.25
	c-1.3,1.37-2.12,3.45-2.12,5.34c0,2.11,1.04,4.33,2.64,5.69c1.33,1.14,3.12,1.76,5.04,1.76c2.77,0,5.21-1.5,6.41-3.97h-9.08V493.71z
	"/>
<polygon class="st10" points="521.22,483.04 532.9,483.04 532.9,486.78 525.22,486.78 525.22,492.08 532.57,492.08 532.57,495.82 
	525.22,495.82 525.22,501 532.9,501 532.9,504.74 521.22,504.74 "/>
<rect x="287.6" y="482.54" class="st10" width="10.02" height="54.32"/>
<path class="st10" d="M309.67,482.54h12.3c8.39,0,14.98,1.47,19.71,4.4c6.92,4.4,11.48,13.44,11.48,22.88
	c0,10.5-5.54,19.95-14.01,24.02c-4.4,2.12-9.44,3.01-16.94,3.01h-12.54V482.54z M321.81,527.49c6.35,0,9.93-0.73,13.19-2.69
	c5.13-3.01,8.14-8.55,8.14-14.82c0-6.76-3.42-12.79-8.88-15.72c-3.09-1.63-6.92-2.36-12.62-2.36h-1.95v35.59H321.81z"/>
<polygon class="st10" points="359.51,482.54 388.75,482.54 388.75,491.91 369.53,491.91 369.53,505.18 387.93,505.18 387.93,514.55 
	369.53,514.55 369.53,527.49 388.75,527.49 388.75,536.86 359.51,536.86 "/>
<path class="st10" d="M414.57,482.54h7.82l22.8,54.32h-11.08l-5.86-14.01h-19.22L403,536.86h-11.08L414.57,482.54z M424.26,513.49
	l-5.78-16.69l-5.78,16.69H424.26z"/>
<path class="st9" d="M288.51,555.91h-0.81v-7.19h1.3c0.88,0,1.39,0.14,1.81,0.51c0.42,0.36,0.67,0.92,0.67,1.51
	c0,1.26-0.86,2.03-2.28,2.03h-0.7V555.91z M289.15,552.03c0.98,0,1.54-0.47,1.54-1.29c0-0.85-0.54-1.27-1.6-1.27h-0.59v2.57H289.15z
	"/>
<path class="st9" d="M296.76,555.91h-0.98l-2.17-3.15h-0.2v3.15h-0.81v-7.19h1.16c0.82,0,1.3,0.11,1.72,0.39
	c0.5,0.33,0.8,0.95,0.8,1.63c0,1.09-0.71,1.87-1.81,1.96L296.76,555.91z M293.92,552.05c1.01,0,1.59-0.47,1.59-1.32
	c0-0.44-0.19-0.83-0.53-1.03c-0.26-0.16-0.58-0.24-1.09-0.24h-0.47v2.59H293.92z"/>
<path class="st9" d="M304.92,552.32c0,2.04-1.69,3.72-3.74,3.72c-2.07,0-3.74-1.66-3.74-3.73c0-2.05,1.7-3.71,3.8-3.71
	C303.22,548.6,304.92,550.32,304.92,552.32 M298.24,552.33c0,1.63,1.32,2.95,2.93,2.95c1.63,0,2.93-1.33,2.93-2.99
	c0-1.64-1.32-2.94-2.97-2.94C299.54,549.36,298.24,550.71,298.24,552.33"/>
<path class="st9" d="M307.57,554.53c0,0.91-0.14,1.36-0.54,1.72c-0.28,0.27-0.66,0.41-1.05,0.41c-0.45,0-0.85-0.16-1.29-0.53
	l0.44-0.62c0.36,0.31,0.53,0.4,0.83,0.4c0.56,0,0.8-0.42,0.8-1.37v-5.81h0.81V554.53z"/>
<polygon class="st9" points="310.27,549.47 310.27,551.61 313.11,551.61 313.11,552.36 310.27,552.36 310.27,555.17 313.18,555.17 
	313.18,555.91 309.46,555.91 309.46,548.72 313.18,548.72 313.18,549.47 "/>
<polygon class="st9" points="318.52,548.72 319.6,548.72 316.23,552.07 319.71,555.91 318.61,555.91 315.66,552.61 315.46,552.82 
	315.46,555.91 314.65,555.91 314.65,548.72 315.46,548.72 315.46,551.81 "/>
<polygon class="st9" points="322.84,555.91 322.03,555.91 322.03,549.46 320.29,549.46 320.29,548.72 324.58,548.72 324.58,549.46 
	322.84,549.46 "/>
<polygon class="st9" points="328.07,548.42 333.66,554.3 333.66,548.72 334.47,548.72 334.47,556.24 328.87,550.37 328.87,555.91 
	328.07,555.91 "/>
<path class="st9" d="M337.23,553.88l-0.86,2.04h-0.87l3.31-7.54l3.23,7.54h-0.88l-0.85-2.04H337.23z M338.79,550.25l-1.23,2.88h2.43
	L338.79,550.25z M338.67,548.15l-0.46-0.34l1.28-1.4l0.72,0.49L338.67,548.15z"/>
<path class="st9" d="M347.22,555.91h-0.98l-2.17-3.15h-0.2v3.15h-0.81v-7.19h1.16c0.82,0,1.3,0.11,1.72,0.39
	c0.5,0.33,0.8,0.95,0.8,1.63c0,1.09-0.71,1.87-1.81,1.96L347.22,555.91z M344.37,552.05c1.01,0,1.59-0.47,1.59-1.32
	c0-0.44-0.19-0.83-0.53-1.03c-0.26-0.16-0.58-0.24-1.09-0.24h-0.47v2.59H344.37z"/>
<path class="st9" d="M355.37,552.32c0,2.04-1.69,3.72-3.74,3.72c-2.07,0-3.74-1.66-3.74-3.73c0-2.05,1.7-3.71,3.8-3.71
	C353.68,548.6,355.37,550.32,355.37,552.32 M348.69,552.33c0,1.63,1.32,2.95,2.93,2.95c1.63,0,2.93-1.33,2.93-2.99
	c0-1.64-1.32-2.94-2.98-2.94C350,549.36,348.69,550.71,348.69,552.33"/>
<path class="st9" d="M356.85,548.72h1.48c1.16,0,1.95,0.25,2.64,0.83c0.81,0.67,1.24,1.64,1.24,2.76c0,1.13-0.43,2.09-1.26,2.77
	c-0.71,0.59-1.47,0.83-2.63,0.83h-1.47V548.72z M358.36,555.17c0.88,0,1.52-0.2,2.06-0.66c0.64-0.53,0.98-1.32,0.98-2.19
	c0-0.88-0.36-1.68-0.97-2.2c-0.54-0.45-1.19-0.66-2.07-0.66h-0.7v5.7H358.36z"/>
<path class="st9" d="M370.75,552.32c0,2.04-1.69,3.72-3.74,3.72c-2.07,0-3.74-1.66-3.74-3.73c0-2.05,1.7-3.71,3.8-3.71
	C369.05,548.6,370.75,550.32,370.75,552.32 M364.07,552.33c0,1.63,1.32,2.95,2.93,2.95c1.63,0,2.93-1.33,2.93-2.99
	c0-1.64-1.32-2.94-2.97-2.94C365.38,549.36,364.07,550.71,364.07,552.33"/>
<polygon class="st9" points="376.7,551.65 376.7,548.72 377.51,548.72 377.51,555.91 376.7,555.91 376.7,552.4 373.03,552.4 
	373.03,555.91 372.23,555.91 372.23,548.72 373.03,548.72 373.03,551.65 "/>
<path class="st9" d="M386.48,552.32c0,2.04-1.69,3.72-3.74,3.72c-2.07,0-3.74-1.66-3.74-3.73c0-2.05,1.7-3.71,3.8-3.71
	C384.79,548.6,386.48,550.32,386.48,552.32 M379.81,552.33c0,1.63,1.32,2.95,2.93,2.95c1.63,0,2.93-1.33,2.93-2.99
	c0-1.64-1.32-2.94-2.97-2.94C381.11,549.36,379.81,550.71,379.81,552.33"/>
<path class="st9" d="M391.02,550.13c-0.37-0.58-0.68-0.78-1.23-0.78c-0.68,0-1.2,0.47-1.2,1.11c0,0.31,0.15,0.57,0.45,0.78
	c0.26,0.17,0.26,0.17,1.24,0.6c1.16,0.51,1.63,1.08,1.63,1.98c0,1.24-0.99,2.21-2.29,2.21c-1.13,0-1.94-0.68-2.21-1.86l0.78-0.22
	c0.09,0.37,0.15,0.54,0.29,0.73c0.26,0.37,0.7,0.58,1.18,0.58c0.81,0,1.44-0.63,1.44-1.41c0-0.44-0.19-0.78-0.59-1.02
	c-0.27-0.17-0.27-0.17-1.27-0.63c-1.04-0.46-1.46-0.98-1.46-1.77c0-1.06,0.86-1.85,2.02-1.85c0.81,0,1.42,0.38,1.85,1.12
	L391.02,550.13z"/>
<path class="st9" d="M394.2,555.91h-0.81v-7.19h1.3c0.88,0,1.39,0.14,1.81,0.51c0.42,0.36,0.67,0.92,0.67,1.51
	c0,1.26-0.86,2.03-2.28,2.03h-0.7V555.91z M394.84,552.03c0.98,0,1.54-0.47,1.54-1.29c0-0.85-0.54-1.27-1.6-1.27h-0.59v2.57H394.84z
	"/>
<path class="st9" d="M405.46,552.32c0,2.04-1.69,3.72-3.74,3.72c-2.07,0-3.74-1.66-3.74-3.73c0-2.05,1.7-3.71,3.8-3.71
	C403.77,548.6,405.46,550.32,405.46,552.32 M398.79,552.33c0,1.63,1.32,2.95,2.93,2.95c1.63,0,2.93-1.33,2.93-2.99
	c0-1.64-1.32-2.94-2.97-2.94C400.09,549.36,398.79,550.71,398.79,552.33"/>
<path class="st9" d="M406.94,548.72h1.48c1.16,0,1.95,0.25,2.64,0.83c0.81,0.67,1.24,1.64,1.24,2.76c0,1.13-0.43,2.09-1.26,2.77
	c-0.71,0.59-1.47,0.83-2.63,0.83h-1.47V548.72z M408.45,555.17c0.88,0,1.52-0.2,2.06-0.66c0.64-0.53,0.98-1.32,0.98-2.19
	c0-0.88-0.36-1.68-0.97-2.2c-0.54-0.45-1.19-0.66-2.07-0.66h-0.7v5.7H408.45z"/>
<path class="st9" d="M414.33,553.88l-0.86,2.04h-0.87l3.31-7.54l3.23,7.54h-0.88l-0.85-2.04H414.33z M415.9,550.25l-1.23,2.88h2.43
	L415.9,550.25z M415.78,548.15l-0.46-0.34l1.28-1.4l0.72,0.49L415.78,548.15z"/>
<path class="st9" d="M424.33,555.91h-0.98l-2.17-3.15h-0.2v3.15h-0.81v-7.19h1.16c0.82,0,1.3,0.11,1.72,0.39
	c0.5,0.33,0.8,0.95,0.8,1.63c0,1.09-0.71,1.87-1.81,1.96L424.33,555.91z M421.8,548.14l-1.52-1.28l0.57-0.44l0.95,0.81l0.94-0.81
	l0.56,0.44L421.8,548.14z M421.48,552.05c1.01,0,1.59-0.47,1.59-1.32c0-0.44-0.19-0.83-0.53-1.03c-0.26-0.16-0.58-0.24-1.09-0.24
	h-0.47v2.59H421.48z"/>
<path class="st9" d="M428.59,550.13c-0.37-0.58-0.68-0.78-1.23-0.78c-0.68,0-1.2,0.47-1.2,1.11c0,0.31,0.15,0.57,0.45,0.78
	c0.26,0.17,0.26,0.17,1.24,0.6c1.16,0.51,1.63,1.08,1.63,1.98c0,1.24-0.99,2.21-2.29,2.21c-1.13,0-1.94-0.68-2.21-1.86l0.78-0.22
	c0.09,0.37,0.15,0.54,0.29,0.73c0.26,0.37,0.7,0.58,1.18,0.58c0.81,0,1.44-0.63,1.44-1.41c0-0.44-0.19-0.78-0.59-1.02
	c-0.27-0.17-0.27-0.17-1.27-0.63c-1.04-0.46-1.46-0.98-1.46-1.77c0-1.06,0.86-1.85,2.02-1.85c0.81,0,1.42,0.38,1.85,1.12
	L428.59,550.13z"/>
<polygon class="st9" points="434.83,548.72 435.91,548.72 432.53,552.07 436.01,555.91 434.92,555.91 431.97,552.61 431.77,552.82 
	431.77,555.91 430.96,555.91 430.96,548.72 431.77,548.72 431.77,551.81 "/>
<path class="st9" d="M437.88,549.47v2.15h2.84v0.74h-2.84v2.81h2.91v0.74h-3.72v-7.19h3.72v0.74H437.88z M438.75,548.15l-0.46-0.34
	l1.28-1.4l0.72,0.49L438.75,548.15z"/>
<polygon class="st9" points="446.74,551.65 446.74,548.72 447.54,548.72 447.54,555.91 446.74,555.91 446.74,552.4 443.07,552.4 
	443.07,555.91 442.26,555.91 442.26,548.72 443.07,548.72 443.07,551.65 "/>
<path class="st9" d="M456.52,552.32c0,2.04-1.69,3.72-3.74,3.72c-2.07,0-3.74-1.66-3.74-3.73c0-2.05,1.7-3.71,3.81-3.71
	C454.82,548.6,456.52,550.32,456.52,552.32 M449.84,552.33c0,1.63,1.32,2.95,2.93,2.95c1.63,0,2.93-1.33,2.93-2.99
	c0-1.64-1.31-2.94-2.97-2.94C451.15,549.36,449.84,550.71,449.84,552.33"/>
<path class="st9" d="M461.19,553.13c0,0.74,0.06,1.07,0.24,1.38c0.28,0.45,0.89,0.78,1.52,0.78c0.62,0,1.23-0.32,1.51-0.78
	c0.18-0.31,0.24-0.64,0.24-1.38v-4.41h0.81v4.63c0,0.78-0.13,1.26-0.47,1.7c-0.47,0.61-1.26,0.99-2.08,0.99
	c-0.83,0-1.63-0.38-2.09-0.99c-0.34-0.44-0.47-0.92-0.47-1.7v-4.63h0.81V553.13z M462.82,548.15l-0.46-0.34l1.28-1.4l0.72,0.49
	L462.82,548.15z"/>
<path class="st9" d="M470.48,550.13c-0.37-0.58-0.68-0.78-1.23-0.78c-0.68,0-1.2,0.47-1.2,1.11c0,0.31,0.15,0.57,0.45,0.78
	c0.26,0.17,0.26,0.17,1.24,0.6c1.16,0.51,1.63,1.08,1.63,1.98c0,1.24-0.99,2.21-2.29,2.21c-1.13,0-1.94-0.68-2.21-1.86l0.78-0.22
	c0.09,0.37,0.15,0.54,0.29,0.73c0.26,0.37,0.7,0.58,1.17,0.58c0.81,0,1.45-0.63,1.45-1.41c0-0.44-0.19-0.78-0.59-1.02
	c-0.27-0.17-0.27-0.17-1.27-0.63c-1.04-0.46-1.46-0.98-1.46-1.77c0-1.06,0.86-1.85,2.02-1.85c0.81,0,1.42,0.38,1.86,1.12
	L470.48,550.13z"/>
<polygon class="st9" points="474.6,555.91 473.8,555.91 473.8,549.46 472.06,549.46 472.06,548.72 476.35,548.72 476.35,549.46 
	474.6,549.46 "/>
<path class="st9" d="M477.86,553.88l-0.86,2.04h-0.87l3.31-7.54l3.23,7.54h-0.88l-0.85-2.04H477.86z M479.42,550.25l-1.23,2.88h2.43
	L479.42,550.25z"/>
<polygon class="st9" points="485.26,554.2 487.29,548.72 488.17,548.72 485.24,556.33 482.33,548.72 483.22,548.72 "/>
<path class="st9" d="M489.99,553.13c0,0.74,0.06,1.07,0.24,1.38c0.28,0.45,0.89,0.78,1.52,0.78c0.61,0,1.23-0.32,1.51-0.78
	c0.18-0.31,0.24-0.64,0.24-1.38v-4.41h0.81v4.63c0,0.78-0.13,1.26-0.48,1.7c-0.47,0.61-1.26,0.99-2.08,0.99
	c-0.83,0-1.63-0.38-2.09-0.99c-0.34-0.44-0.48-0.92-0.48-1.7v-4.63h0.81V553.13z"/>
<path class="st9" d="M499.44,553.88l-0.86,2.04h-0.87l3.31-7.54l3.23,7.54h-0.88l-0.85-2.04H499.44z M501.01,550.25l-1.23,2.88h2.43
	L501.01,550.25z"/>
<polygon class="st9" points="509.15,548.72 510.22,548.72 506.85,552.07 510.33,555.91 509.23,555.91 506.29,552.61 506.08,552.82 
	506.08,555.91 505.27,555.91 505.27,548.72 506.08,548.72 506.08,551.81 "/>
<path class="st9" d="M512.67,553.88l-0.86,2.04h-0.87l3.31-7.54l3.23,7.54h-0.88l-0.85-2.04H512.67z M514.23,550.25l-1.23,2.88h2.43
	L514.23,550.25z"/>
<path class="st9" d="M518.5,548.72h1.48c1.16,0,1.95,0.25,2.64,0.83c0.81,0.67,1.24,1.64,1.24,2.76c0,1.13-0.43,2.09-1.26,2.77
	c-0.71,0.59-1.47,0.83-2.63,0.83h-1.47V548.72z M520.01,555.17c0.88,0,1.52-0.2,2.06-0.66c0.64-0.53,0.98-1.32,0.98-2.19
	c0-0.88-0.36-1.68-0.97-2.2c-0.54-0.45-1.19-0.66-2.07-0.66h-0.7v5.7H520.01z"/>
<polygon class="st9" points="526.15,549.47 526.15,551.61 528.99,551.61 528.99,552.36 526.15,552.36 526.15,555.17 529.06,555.17 
	529.06,555.91 525.34,555.91 525.34,548.72 529.06,548.72 529.06,549.47 "/>
<polygon class="st9" points="531.38,548.32 534.14,554.39 536.96,548.31 538.08,555.91 537.26,555.91 536.59,550.91 534.14,556.22 
	531.72,550.91 531.01,555.91 530.19,555.91 "/>
<rect x="539.7" y="548.72" class="st9" width="0.81" height="7.19"/>
<polygon class="st9" points="543.21,549.47 543.21,551.61 546.04,551.61 546.04,552.36 543.21,552.36 543.21,555.17 546.12,555.17 
	546.12,555.91 542.4,555.91 542.4,548.72 546.12,548.72 546.12,549.47 "/>
<polygon class="st9" points="552.05,554.2 554.08,548.72 554.96,548.72 552.03,556.33 549.12,548.72 550.01,548.72 "/>
<path class="st9" d="M556.78,549.46v2.15h2.84v0.74h-2.84v2.81h2.91v0.74h-3.72v-7.19h3.72v0.74H556.78z M557.85,548.14l-1.52-1.28
	l0.57-0.44l0.95,0.81l0.94-0.81l0.56,0.44L557.85,548.14z"/>
<path class="st9" d="M561.16,548.72h1.48c1.16,0,1.95,0.25,2.64,0.83c0.81,0.67,1.24,1.64,1.24,2.76c0,1.13-0.43,2.09-1.26,2.77
	c-0.71,0.59-1.47,0.83-2.63,0.83h-1.47V548.72z M562.67,555.17c0.88,0,1.52-0.2,2.06-0.66c0.64-0.53,0.98-1.32,0.98-2.19
	c0-0.88-0.36-1.68-0.97-2.2c-0.54-0.45-1.19-0.66-2.07-0.66h-0.7v5.7H562.67z"/>
<path class="st9" d="M575.87,550.31c-0.7-0.66-1.36-0.95-2.18-0.95c-1.58,0-2.9,1.35-2.9,3c0,1.6,1.32,2.93,2.91,2.93
	c0.8,0,1.48-0.29,2.17-0.94v0.99c-0.7,0.49-1.38,0.7-2.17,0.7c-2.03,0-3.72-1.67-3.72-3.7c0-2.06,1.69-3.74,3.76-3.74
	c0.8,0,1.39,0.2,2.12,0.71V550.31z M573.71,548.14l-1.52-1.28l0.57-0.44l0.95,0.81l0.94-0.81l0.56,0.44L573.71,548.14z"/>
<path class="st9" d="M581.58,555.91h-0.98l-2.17-3.15h-0.21v3.15h-0.81v-7.19h1.17c0.82,0,1.3,0.11,1.72,0.39
	c0.5,0.33,0.8,0.95,0.8,1.63c0,1.09-0.71,1.87-1.81,1.96L581.58,555.91z M578.73,552.05c1.01,0,1.58-0.47,1.58-1.32
	c0-0.44-0.19-0.83-0.53-1.03c-0.26-0.16-0.58-0.24-1.09-0.24h-0.48v2.59H578.73z"/>
<g>
	<defs>
		<rect id="SVGID_1_" x="26.44" y="26.14" width="789" height="543"/>
	</defs>
	<clipPath id="SVGID_00000134243139947152630540000007010174155265621124_">
		<use xlink:href="#SVGID_1_"  style="overflow:visible;"/>
	</clipPath>
	
		<rect x="26.44" y="26.14" style="clip-path:url(#SVGID_00000134243139947152630540000007010174155265621124_);fill:none;stroke:#000000;stroke-width:1.5;stroke-miterlimit:10;" width="789" height="543"/>
</g>
</svg>
